# xmcd
#
# Track frame offsets: 
#        150
#        17137
#        32482
#        48020
#        63827
#        76487
#        93727
#        110450
#        125777
#        143912
#
# Disc length: 2164 seconds
#
# Revision: 1
# Processed by: cddbd v1.5.2PL0 Copyright (c) Steve Scherf et al.
# Submitted via: ExactAudioCopy v1.3
#
DISCID=8108720a
DTITLE=Billy Ray Cyrus - Some Gave All
DYEAR=1992
DGENRE=Rock
TTITLE0=Could've Been Me
TTITLE1=Achy Breaky Heart
TTITLE2=She's Not Cryin' Anymore
TTITLE3=Wher'm I Gonna Live?
TTITLE4=These Boots Are Made for Walkin'
TTITLE5=Someday, Somewhere, Somehow
TTITLE6=Never Thought I'd Fall in Love with You
TTITLE7=Ain't No Good Goodbye
TTITLE8=I'm So Miserable
TTITLE9=Some Gave All
EXTD=
EXTT0=
EXTT1=
EXTT2=
EXTT3=
EXTT4=
EXTT5=
EXTT6=
EXTT7=
EXTT8=
EXTT9=
PLAYORDER=
